<svg width="46" height="46" viewBox="0 0 46 46" fill="none" xmlns="http://www.w3.org/2000/svg">
<path d="M34.6667 9H11.3333M34.6667 9C39.0664 9 41.2663 9 42.6332 10.3668C44 11.7337 44 13.9336 44 18.3333M34.6667 9V2M44 18.3333V34.6667C44 39.0664 44 41.2663 42.6332 42.6332C41.2663 44 39.0664 44 34.6667 44H11.3333C6.93356 44 4.73367 44 3.36683 42.6332C2 41.2663 2 39.0664 2 34.6667V18.3333M44 18.3333H2M11.3333 9C6.93356 9 4.73367 9 3.36683 10.3668C2 11.7337 2 13.9336 2 18.3333M11.3333 9V2" stroke="#33363F" stroke-opacity="0.5" stroke-width="4" stroke-linecap="round"/>
</svg>
