<svg width="64" height="47" viewBox="0 0 64 47" fill="none" xmlns="http://www.w3.org/2000/svg">
<path d="M15.8889 31.3846H15.9211M6.22222 18.7692H61M15.8889 44H48.1111C54.187 44 57.2249 44 59.1125 42.1525C61 40.305 61 37.3316 61 31.3846V15.6154C61 9.66843 61 6.69496 59.1125 4.84748C57.2249 3 54.187 3 48.1111 3H15.8889C9.81301 3 6.77507 3 4.88753 4.84748C3 6.69496 3 9.66843 3 15.6154V31.3846C3 37.3316 3 40.305 4.88753 42.1525C6.77507 44 9.81301 44 15.8889 44Z" stroke="#33363F" stroke-opacity="0.5" stroke-width="5" stroke-linecap="round"/>
</svg>
