<svg width="51" height="51" viewBox="0 0 51 51" fill="none" xmlns="http://www.w3.org/2000/svg">
<path d="M48.45 38.2492H8.925C8.58685 38.2492 8.26255 38.1148 8.02344 37.8757C7.78433 37.6366 7.65 37.3123 7.65 36.9742C7.65 36.636 7.78433 36.3118 8.02344 36.0726C8.26255 35.8335 8.58685 35.6992 8.925 35.6992H40.8C41.3352 35.6993 41.8568 35.5309 42.2909 35.2181C42.7251 34.9052 43.0499 34.4637 43.2192 33.9561L50.8692 11.0066C50.9967 10.6232 51.0314 10.2151 50.9704 9.81573C50.9094 9.41636 50.7544 9.03719 50.5182 8.70944C50.282 8.38168 49.9713 8.11471 49.6118 7.93049C49.2522 7.74627 48.854 7.65008 48.45 7.64983H11.5538L10.1235 1.93107C9.98551 1.37951 9.66714 0.889893 9.21897 0.540011C8.77081 0.190129 8.21857 5.76477e-05 7.65 0H0V5.09989H5.65896L12.034 30.5993H8.925C7.23425 30.5993 5.61274 31.271 4.41719 32.4665C3.22165 33.662 2.55 35.2835 2.55 36.9742C2.55 38.6649 3.22165 40.2864 4.41719 41.4819C5.61274 42.6774 7.23425 43.349 8.925 43.349H10.329C10.1398 44.2753 10.1589 45.2321 10.3851 46.15C10.6112 47.068 11.0387 47.9242 11.6366 48.6565C12.2345 49.3889 12.9877 49.9791 13.8419 50.3844C14.696 50.7897 15.6296 51 16.575 51C17.5204 51 18.454 50.7897 19.3081 50.3844C20.1623 49.9791 20.9155 49.3889 21.5134 48.6565C22.1113 47.9242 22.5388 47.068 22.7649 46.15C22.9911 45.2321 23.0102 44.2753 22.821 43.349H30.729C30.5398 44.2753 30.5589 45.2321 30.7851 46.15C31.0112 47.068 31.4387 47.9242 32.0366 48.6565C32.6345 49.3889 33.3877 49.9791 34.2419 50.3844C35.096 50.7897 36.0296 51 36.975 51C37.9204 51 38.854 50.7897 39.7081 50.3844C40.5623 49.9791 41.3155 49.3889 41.9134 48.6565C42.5113 47.9242 42.9388 47.068 43.1649 46.15C43.3911 45.2321 43.4102 44.2753 43.221 43.349H48.45C49.1263 43.349 49.7749 43.0804 50.2531 42.6022C50.7313 42.124 51 41.4754 51 40.7991C51 40.1228 50.7313 39.4742 50.2531 38.996C49.7749 38.5178 49.1263 38.2492 48.45 38.2492ZM12.8288 12.7497H44.9126L38.9622 30.5993H17.2913L12.8288 12.7497ZM17.85 44.624C17.85 44.8762 17.7752 45.1227 17.6351 45.3324C17.495 45.542 17.2959 45.7054 17.0629 45.8019C16.8299 45.8984 16.5736 45.9237 16.3263 45.8745C16.0789 45.8253 15.8518 45.7039 15.6734 45.5256C15.4951 45.3473 15.3737 45.1201 15.3245 44.8728C15.2753 44.6254 15.3006 44.3691 15.3971 44.1361C15.4936 43.9031 15.657 43.704 15.8666 43.5639C16.0763 43.4238 16.3228 43.349 16.575 43.349C16.9132 43.349 17.2375 43.4834 17.4766 43.7225C17.7157 43.9616 17.85 44.2859 17.85 44.624ZM38.25 44.624C38.25 44.8762 38.1752 45.1227 38.0351 45.3324C37.895 45.542 37.6959 45.7054 37.4629 45.8019C37.2299 45.8984 36.9736 45.9237 36.7263 45.8745C36.4789 45.8253 36.2518 45.7039 36.0734 45.5256C35.8951 45.3473 35.7737 45.1201 35.7245 44.8728C35.6753 44.6254 35.7006 44.3691 35.7971 44.1361C35.8936 43.9031 36.057 43.704 36.2667 43.5639C36.4763 43.4238 36.7228 43.349 36.975 43.349C37.3132 43.349 37.6375 43.4834 37.8766 43.7225C38.1157 43.9616 38.25 44.2859 38.25 44.624Z" fill="black" fill-opacity="0.5"/>
</svg>
