<svg width="34" height="35" viewBox="0 0 34 35" fill="none" xmlns="http://www.w3.org/2000/svg">
<path d="M32.3 26.1624H5.95C5.72457 26.1624 5.50837 26.0735 5.34896 25.9153C5.18955 25.7571 5.1 25.5425 5.1 25.3187C5.1 25.095 5.18955 24.8804 5.34896 24.7222C5.50837 24.5639 5.72457 24.4751 5.95 24.4751H27.2C27.5568 24.4751 27.9045 24.3637 28.194 24.1567C28.4834 23.9497 28.6999 23.6575 28.8128 23.3216L33.9128 8.13523C33.9978 7.88157 34.021 7.61149 33.9803 7.34721C33.9396 7.08294 33.8363 6.83204 33.6788 6.61515C33.5213 6.39826 33.3142 6.2216 33.0745 6.0997C32.8348 5.9778 32.5693 5.91414 32.3 5.91398H7.70253L6.749 2.12971C6.657 1.76473 6.44476 1.44074 6.14598 1.20921C5.84721 0.977681 5.47905 0.851906 5.1 0.851868H0V4.22661H3.77264L8.02264 21.1003H5.95C4.82283 21.1003 3.74183 21.5448 2.9448 22.3359C2.14777 23.127 1.7 24.1999 1.7 25.3187C1.7 26.4375 2.14777 27.5105 2.9448 28.3016C3.74183 29.0927 4.82283 29.5372 5.95 29.5372H6.88602C6.75985 30.1501 6.77261 30.7832 6.92338 31.3907C7.07415 31.9981 7.35914 32.5646 7.75772 33.0493C8.1563 33.5339 8.65849 33.9244 9.22791 34.1927C9.79733 34.4609 10.4197 34.6 11.05 34.6C11.6803 34.6 12.3027 34.4609 12.8721 34.1927C13.4415 33.9244 13.9437 33.5339 14.3423 33.0493C14.7409 32.5646 15.0259 31.9981 15.1766 31.3907C15.3274 30.7832 15.3401 30.1501 15.214 29.5372H20.486C20.3599 30.1501 20.3726 30.7832 20.5234 31.3907C20.6741 31.9981 20.9591 32.5646 21.3577 33.0493C21.7563 33.5339 22.2585 33.9244 22.8279 34.1927C23.3973 34.4609 24.0197 34.6 24.65 34.6C25.2803 34.6 25.9027 34.4609 26.4721 34.1927C27.0415 33.9244 27.5437 33.5339 27.9423 33.0493C28.3409 32.5646 28.6259 31.9981 28.7766 31.3907C28.9274 30.7832 28.9401 30.1501 28.814 29.5372H32.3C32.7509 29.5372 33.1833 29.3594 33.5021 29.0429C33.8209 28.7265 34 28.2973 34 27.8498C34 27.4023 33.8209 26.9731 33.5021 26.6566C33.1833 26.3402 32.7509 26.1624 32.3 26.1624ZM8.55253 9.28872H29.9418L25.9748 21.1003H11.5275L8.55253 9.28872ZM11.9 30.3808C11.9 30.5477 11.8501 30.7108 11.7568 30.8496C11.6634 30.9883 11.5306 31.0965 11.3753 31.1603C11.22 31.2242 11.0491 31.2409 10.8842 31.2083C10.7193 31.1758 10.5678 31.0954 10.449 30.9774C10.3301 30.8594 10.2491 30.7091 10.2163 30.5454C10.1835 30.3818 10.2004 30.2121 10.2647 30.058C10.329 29.9038 10.438 29.7721 10.5778 29.6793C10.7175 29.5866 10.8819 29.5372 11.05 29.5372C11.2754 29.5372 11.4916 29.626 11.651 29.7843C11.8104 29.9425 11.9 30.1571 11.9 30.3808ZM25.5 30.3808C25.5 30.5477 25.4501 30.7108 25.3568 30.8496C25.2634 30.9883 25.1306 31.0965 24.9753 31.1603C24.82 31.2242 24.6491 31.2409 24.4842 31.2083C24.3193 31.1758 24.1678 31.0954 24.049 30.9774C23.9301 30.8594 23.8491 30.7091 23.8163 30.5454C23.7835 30.3818 23.8004 30.2121 23.8647 30.058C23.929 29.9038 24.038 29.7721 24.1778 29.6793C24.3175 29.5866 24.4819 29.5372 24.65 29.5372C24.8754 29.5372 25.0916 29.626 25.251 29.7843C25.4104 29.9425 25.5 30.1571 25.5 30.3808Z" fill="#050300"/>
</svg>
