<svg width="53" height="45" viewBox="0 0 53 45" fill="none" xmlns="http://www.w3.org/2000/svg">
<path d="M44.8927 14.6154C44.8927 15.4438 45.5643 16.1154 46.3927 16.1154C47.2212 16.1154 47.8927 15.4438 47.8927 14.6154H44.8927ZM30.5863 35.0385C31.4147 35.0385 32.0863 34.3669 32.0863 33.5385C32.0863 32.71 31.4147 32.0385 30.5863 32.0385V35.0385ZM2.38152 32.3048L1.04566 32.987L1.04566 32.987L2.38152 32.3048ZM3.37128 33.2922L2.69156 34.6293L2.69157 34.6294L3.37128 33.2922ZM45.1561 2.24627L45.8358 0.90911L45.8358 0.909108L45.1561 2.24627ZM46.1459 3.23369L44.81 3.91595L44.81 3.91595L46.1459 3.23369ZM3.37128 2.24627L2.69157 0.90911L2.69157 0.90911L3.37128 2.24627ZM2.38152 3.23369L1.04566 2.55143L1.04566 2.55143L2.38152 3.23369ZM11.6185 22.5769C10.7901 22.5769 10.1185 23.2485 10.1185 24.0769C10.1185 24.9053 10.7901 25.5769 11.6185 25.5769V22.5769ZM24.2637 25.5769C25.0921 25.5769 25.7637 24.9053 25.7637 24.0769C25.7637 23.2485 25.0921 22.5769 24.2637 22.5769V25.5769ZM11.6185 9.96154C10.7901 9.96154 10.1185 10.6331 10.1185 11.4615C10.1185 12.29 10.7901 12.9615 11.6185 12.9615V9.96154ZM33.7476 12.9615C34.576 12.9615 35.2476 12.29 35.2476 11.4615C35.2476 10.6331 34.576 9.96154 33.7476 9.96154V12.9615ZM48.213 43.6721C48.5842 44.4127 49.4855 44.7122 50.2261 44.341C50.9667 43.9698 51.2662 43.0685 50.895 42.3279L48.213 43.6721ZM35.5679 42.3279C35.1967 43.0685 35.4962 43.9698 36.2368 44.341C36.9774 44.7122 37.8787 44.4127 38.2499 43.6721L35.5679 42.3279ZM5.75836 3.5H42.7691V0.5H5.75836V3.5ZM3.63467 29.9233V5.61515H0.634674V29.9233H3.63467ZM44.8927 5.61516V14.6154H47.8927V5.61516H44.8927ZM30.5863 32.0385H5.75836V35.0385H30.5863V32.0385ZM0.634674 29.9233C0.634674 30.5312 0.633502 31.0776 0.670535 31.5298C0.709011 31.9996 0.796083 32.4984 1.04566 32.987L3.71738 31.6225C3.71697 31.6217 3.71522 31.6182 3.71237 31.6103C3.70939 31.6019 3.70451 31.5867 3.69869 31.5621C3.68647 31.5103 3.67202 31.4253 3.66053 31.2849C3.63585 30.9835 3.63467 30.5808 3.63467 29.9233H0.634674ZM5.75836 32.0385C5.09947 32.0385 4.69529 32.0373 4.39271 32.0126C4.25163 32.0011 4.16585 31.9867 4.11335 31.9743C4.08835 31.9685 4.07277 31.9635 4.06412 31.9604C4.0558 31.9574 4.05204 31.9556 4.05099 31.955L2.69157 34.6294C3.18019 34.8777 3.67884 34.9644 4.14898 35.0027C4.60172 35.0396 5.14885 35.0385 5.75836 35.0385V32.0385ZM1.04566 32.987C1.40709 33.6947 1.98346 34.2694 2.69156 34.6293L4.05099 31.955C3.9068 31.8817 3.79022 31.7651 3.71738 31.6225L1.04566 32.987ZM42.7691 3.5C43.428 3.5 43.8321 3.50116 44.1347 3.52583C44.2758 3.53732 44.3616 3.5518 44.4141 3.56413C44.4391 3.57001 44.4546 3.57498 44.4633 3.57806C44.4716 3.58102 44.4754 3.58289 44.4764 3.58343L45.8358 0.909108C45.3472 0.66073 44.8486 0.574064 44.3784 0.535742C43.9257 0.498839 43.3786 0.5 42.7691 0.5V3.5ZM47.8927 5.61516C47.8927 5.00725 47.8939 4.4609 47.8569 4.0087C47.8184 3.53889 47.7313 3.04011 47.4817 2.55143L44.81 3.91595C44.8104 3.91676 44.8122 3.92022 44.815 3.9282C44.818 3.93651 44.8229 3.95173 44.8287 3.97636C44.8409 4.02812 44.8554 4.11317 44.8669 4.25357C44.8916 4.55492 44.8927 4.95763 44.8927 5.61516H47.8927ZM44.4764 3.58343C44.6206 3.65672 44.7372 3.77333 44.81 3.91595L47.4817 2.55143C47.1203 1.84376 46.544 1.26906 45.8358 0.90911L44.4764 3.58343ZM5.75836 0.5C5.14885 0.5 4.60172 0.498839 4.14898 0.535742C3.67884 0.574064 3.18019 0.66073 2.69157 0.90911L4.05099 3.58343C4.05205 3.58289 4.0558 3.58102 4.06413 3.57806C4.07277 3.57498 4.08835 3.57001 4.11335 3.56413C4.16585 3.5518 4.25163 3.53732 4.3927 3.52583C4.69529 3.50116 5.09946 3.5 5.75836 3.5V0.5ZM3.63467 5.61515C3.63467 4.95763 3.63585 4.55492 3.66053 4.25357C3.67202 4.11317 3.68647 4.02812 3.69869 3.97636C3.70451 3.95173 3.70939 3.93651 3.71237 3.9282C3.71522 3.92022 3.71697 3.91676 3.71738 3.91595L1.04566 2.55143C0.796082 3.04011 0.709011 3.53889 0.670535 4.0087C0.633502 4.4609 0.634674 5.00725 0.634674 5.61515H3.63467ZM2.69157 0.90911C1.98346 1.26906 1.40709 1.84376 1.04566 2.55143L3.71738 3.91595C3.79022 3.77333 3.9068 3.65672 4.05099 3.58343L2.69157 0.90911ZM11.6185 25.5769H24.2637V22.5769H11.6185V25.5769ZM11.6185 12.9615H33.7476V9.96154H11.6185V12.9615ZM49.6347 27.2308C49.6347 30.7536 46.7712 33.6154 43.2314 33.6154V36.6154C48.4214 36.6154 52.6347 32.4171 52.6347 27.2308H49.6347ZM43.2314 33.6154C39.6917 33.6154 36.8282 30.7536 36.8282 27.2308H33.8282C33.8282 32.4171 38.0415 36.6154 43.2314 36.6154V33.6154ZM36.8282 27.2308C36.8282 23.708 39.6917 20.8462 43.2314 20.8462V17.8462C38.0415 17.8462 33.8282 22.0445 33.8282 27.2308H36.8282ZM43.2314 20.8462C46.7712 20.8462 49.6347 23.708 49.6347 27.2308H52.6347C52.6347 22.0445 48.4214 17.8462 43.2314 17.8462V20.8462ZM49.554 43C50.895 42.3279 50.8946 42.3271 50.8942 42.3263C50.8941 42.326 50.8937 42.3252 50.8934 42.3246C50.8928 42.3235 50.8922 42.3223 50.8916 42.321C50.8903 42.3185 50.8889 42.3158 50.8874 42.3129C50.8845 42.3071 50.8811 42.3006 50.8772 42.2933C50.8695 42.2786 50.86 42.2609 50.8487 42.2404C50.8261 42.1994 50.7961 42.1469 50.7582 42.0847C50.6826 41.9604 50.575 41.7962 50.4319 41.6059C50.1462 41.2258 49.7146 40.7359 49.1067 40.2507C47.8719 39.2652 45.9658 38.3462 43.2314 38.3462V41.3462C45.239 41.3462 46.4942 42.004 47.2353 42.5955C47.6153 42.8987 47.8751 43.1973 48.034 43.4086C48.1132 43.5139 48.1662 43.5961 48.1955 43.6443C48.2101 43.6683 48.2187 43.6836 48.2215 43.6888C48.2229 43.6913 48.2229 43.6914 48.2215 43.6887C48.2208 43.6873 48.2197 43.6853 48.2183 43.6825C48.2176 43.6811 48.2168 43.6796 48.2159 43.6778C48.2155 43.677 48.215 43.6761 48.2145 43.6751C48.2143 43.6746 48.2139 43.6739 48.2138 43.6736C48.2134 43.6729 48.213 43.6721 49.554 43ZM43.2314 38.3462C40.4971 38.3462 38.591 39.2652 37.3562 40.2507C36.7483 40.7359 36.3167 41.2258 36.031 41.6059C35.8879 41.7962 35.7803 41.9604 35.7047 42.0847C35.6668 42.1469 35.6368 42.1994 35.6142 42.2404C35.6029 42.2609 35.5934 42.2786 35.5857 42.2933C35.5818 42.3006 35.5784 42.3071 35.5755 42.3129C35.574 42.3158 35.5726 42.3185 35.5713 42.321C35.5707 42.3223 35.5701 42.3235 35.5695 42.3246C35.5692 42.3252 35.5688 42.326 35.5687 42.3263C35.5683 42.3271 35.5679 42.3279 36.9089 43C38.2499 43.6721 38.2495 43.6729 38.2491 43.6736C38.249 43.6739 38.2486 43.6746 38.2484 43.6751C38.2479 43.6761 38.2474 43.677 38.247 43.6778C38.2461 43.6796 38.2453 43.6811 38.2446 43.6825C38.2432 43.6852 38.2421 43.6873 38.2414 43.6887C38.24 43.6914 38.24 43.6913 38.2414 43.6888C38.2442 43.6836 38.2528 43.6683 38.2674 43.6443C38.2967 43.5961 38.3497 43.5139 38.4289 43.4086C38.5878 43.1973 38.8476 42.8987 39.2276 42.5955C39.9687 42.004 41.2239 41.3462 43.2314 41.3462V38.3462Z" fill="black" fill-opacity="0.5"/>
</svg>
