<svg width="51" height="38" viewBox="0 0 51 38" fill="none" xmlns="http://www.w3.org/2000/svg">
<path d="M1.63467 32.7586V11.9415L23.3001 22.9187C24.4544 23.5035 25.8149 23.5035 26.9692 22.9187L48.6347 11.9415V32.7586C48.6347 34.0359 48.6316 34.8449 48.553 35.4369C48.4799 35.9879 48.3667 36.1209 48.3095 36.1788C48.2551 36.2339 48.1318 36.345 47.5975 36.4178C47.0181 36.4967 46.2244 36.5 44.9623 36.5H5.30709C4.04499 36.5 3.25129 36.4967 2.67181 36.4178C2.13753 36.345 2.01423 36.2339 1.95982 36.1788C1.90268 36.1209 1.78942 35.9879 1.71633 35.4369C1.63778 34.8449 1.63467 34.0359 1.63467 32.7586ZM48.6347 8.57845L25.6133 20.2426C25.3114 20.3956 24.9579 20.3956 24.656 20.2426L1.63467 8.57845V5.24138C1.63467 3.96411 1.63778 3.1551 1.71633 2.56306C1.78942 2.01215 1.90268 1.87909 1.95982 1.8212C2.01423 1.76606 2.13753 1.65501 2.6718 1.58222C3.25129 1.50327 4.04498 1.5 5.30709 1.5H44.9623C46.2244 1.5 47.0181 1.50327 47.5975 1.58222C48.1318 1.65501 48.2551 1.76606 48.3095 1.8212C48.3667 1.87909 48.4799 2.01215 48.553 2.56306C48.6316 3.1551 48.6347 3.96411 48.6347 5.24138V8.57845Z" stroke="black" stroke-opacity="0.5" stroke-width="3"/>
</svg>
