<svg width="41" height="51" viewBox="0 0 41 51" fill="none" xmlns="http://www.w3.org/2000/svg">
<path d="M5.71532 20.5386H35.554C36.4437 20.5386 36.9482 20.5423 37.303 20.5938C37.4121 20.6097 37.4767 20.6262 37.512 20.6378C37.5291 20.6824 37.5571 20.78 37.5806 20.969C37.6319 21.381 37.6347 21.954 37.6347 22.9046V43.201C37.6347 44.6072 37.6319 45.5219 37.5479 46.1972C37.4678 46.8403 37.3368 47.0352 37.2476 47.1315C37.1735 47.2115 37.0379 47.3306 36.4949 47.4094C35.8963 47.4963 35.0753 47.5 33.7637 47.5H7.50564C6.19401 47.5 5.37303 47.4963 4.77442 47.4094C4.2315 47.3306 4.0958 47.2115 4.02173 47.1315C3.93252 47.0352 3.80158 46.8403 3.7215 46.1972C3.63741 45.5219 3.63467 44.6072 3.63467 43.201V22.9046C3.63467 21.954 3.63741 21.381 3.68872 20.969C3.71226 20.7799 3.74027 20.6824 3.75732 20.6378C3.79262 20.6262 3.85723 20.6097 3.96633 20.5938C4.32118 20.5423 4.82567 20.5386 5.71532 20.5386ZM37.5483 20.6532C37.5476 20.6535 37.5425 20.6513 37.5349 20.6461C37.5452 20.6504 37.549 20.653 37.5483 20.6532ZM37.5025 20.6154C37.4981 20.6096 37.4962 20.6059 37.4964 20.6055C37.4966 20.605 37.4988 20.6079 37.5025 20.6154ZM3.77294 20.6055C3.77311 20.6059 3.77126 20.6096 3.76687 20.6154C3.77057 20.6079 3.77276 20.605 3.77294 20.6055ZM3.73442 20.6461C3.72682 20.6513 3.7217 20.6535 3.72105 20.6532C3.7204 20.653 3.7242 20.6504 3.73442 20.6461ZM35.554 17.5386H32.724C33.3334 11.9029 30.977 6.32034 26.5279 3.10853C21.1599 -0.766743 14.0385 -0.278409 9.17666 4.26762L7.28428 6.03707L9.33323 8.22837L11.2256 6.45892C15.0544 2.87882 20.5829 2.51678 24.772 5.54093C28.3174 8.10039 30.2705 12.6489 29.7301 17.3162L29.7044 17.5386H5.71532C5.68493 17.5386 5.65459 17.5386 5.62431 17.5386C4.85926 17.5385 4.13197 17.5384 3.53537 17.625C2.85947 17.7231 2.13994 17.9578 1.55855 18.5855C0.992299 19.1969 0.795497 19.9254 0.711717 20.5982C0.634506 21.2183 0.634583 21.9817 0.634668 22.8206L0.634674 22.9046V43.201L0.634671 43.2935C0.634609 44.5813 0.634556 45.6851 0.74449 46.5679C0.861044 47.5039 1.12339 48.4171 1.82074 49.17C2.53322 49.9393 3.42379 50.2448 4.34345 50.3783C5.18326 50.5002 6.22522 50.5001 7.40355 50.5L7.50564 50.5H33.7637L33.8658 50.5C35.0441 50.5001 36.0861 50.5002 36.9259 50.3783C37.8456 50.2448 38.7361 49.9393 39.4486 49.17C40.146 48.4171 40.4083 47.5039 40.5249 46.5679C40.6348 45.6851 40.6347 44.5813 40.6347 43.2934V43.201V22.9046L40.6347 22.8206C40.6348 21.9817 40.6348 21.2183 40.5576 20.5982C40.4739 19.9254 40.2771 19.1969 39.7108 18.5855C39.1294 17.9578 38.4099 17.7231 37.734 17.625C37.1374 17.5384 36.4101 17.5385 35.645 17.5386L35.554 17.5386ZM20.6347 40.5124C24.1236 40.5124 26.7597 37.4948 26.7597 34.0188C26.7597 30.5429 24.1236 27.5253 20.6347 27.5253C17.1457 27.5253 14.5097 30.5429 14.5097 34.0188C14.5097 37.4948 17.1457 40.5124 20.6347 40.5124Z" stroke="black" stroke-opacity="0.5" stroke-width="3"/>
</svg>
