<svg width="36" height="45" viewBox="0 0 36 45" fill="none" xmlns="http://www.w3.org/2000/svg">
<path d="M27.2889 11.1542C27.2889 16.21 23.1904 20.3085 18.1347 20.3085C13.0789 20.3085 8.98044 16.21 8.98044 11.1542C8.98044 6.09849 13.0789 2 18.1347 2C23.1904 2 27.2889 6.09849 27.2889 11.1542Z" stroke="black" stroke-opacity="0.5" stroke-width="3" stroke-linecap="round"/>
<path d="M4.81279 31.1452C5.84461 28.6299 8.36968 27.1742 11.0884 27.1742H25.181C27.8997 27.1742 30.4247 28.6299 31.4566 31.1452C32.6306 34.0073 33.9534 38.0845 34.1338 42.2472C34.1565 42.7698 33.7306 43.1941 33.2076 43.1941H3.06175C2.53874 43.1941 2.11289 42.7698 2.13554 42.2472C2.31597 38.0845 3.6387 34.0073 4.81279 31.1452Z" stroke="black" stroke-opacity="0.5" stroke-width="3" stroke-linecap="round"/>
</svg>
