<svg width="37" height="44" viewBox="0 0 37 44" fill="none" xmlns="http://www.w3.org/2000/svg">
<path d="M27.2889 11.1542C27.2889 16.21 23.1904 20.3085 18.1347 20.3085C13.0789 20.3085 8.98044 16.21 8.98044 11.1542C8.98044 6.09849 13.0789 2 18.1347 2C23.1904 2 27.2889 6.09849 27.2889 11.1542Z" stroke="white" stroke-width="4" stroke-linecap="round"/>
<path d="M4.81279 29.1452C5.84461 26.6299 8.36968 25.1742 11.0884 25.1742H25.181C27.8997 25.1742 30.4247 26.6299 31.4566 29.1452C32.6306 32.0073 33.9534 36.0845 34.1338 40.2472C34.1565 40.7698 33.7306 41.1941 33.2076 41.1941H3.06175C2.53874 41.1941 2.11289 40.7698 2.13554 40.2472C2.31597 36.0845 3.6387 32.0073 4.81279 29.1452Z" stroke="white" stroke-width="4" stroke-linecap="round"/>
</svg>
