<svg width="45" height="720" viewBox="0 0 45 720" fill="none" xmlns="http://www.w3.org/2000/svg">
<rect x="21" width="3" height="355" fill="white" fill-opacity="0.75"/>
<rect x="21" y="420" width="3" height="300" fill="white" fill-opacity="0.75"/>
<path d="M13.5216 400.36C11.8416 400.36 10.2816 400.07 8.84156 399.49C7.40156 398.91 6.14156 398.1 5.06156 397.06C4.00156 396 3.17156 394.77 2.57156 393.37C1.97156 391.97 1.67156 390.45 1.67156 388.81C1.67156 387.17 1.96156 385.65 2.54156 384.25C3.14156 382.85 3.97156 381.63 5.03156 380.59C6.11156 379.55 7.37156 378.74 8.81156 378.16C10.2516 377.58 11.8216 377.29 13.5216 377.29C15.2216 377.29 16.7916 377.58 18.2316 378.16C19.6716 378.74 20.9216 379.55 21.9816 380.59C23.0616 381.63 23.8916 382.85 24.4716 384.25C25.0716 385.65 25.3716 387.17 25.3716 388.81C25.3716 390.45 25.0716 391.97 24.4716 393.37C23.8716 394.77 23.0316 396 21.9516 397.06C20.8916 398.1 19.6416 398.91 18.2016 399.49C16.7616 400.07 15.2016 400.36 13.5216 400.36ZM13.5216 396.16C14.5416 396.16 15.4816 395.98 16.3416 395.62C17.2216 395.26 17.9916 394.76 18.6516 394.12C19.3116 393.46 19.8216 392.68 20.1816 391.78C20.5416 390.88 20.7216 389.89 20.7216 388.81C20.7216 387.73 20.5416 386.75 20.1816 385.87C19.8216 384.97 19.3116 384.19 18.6516 383.53C17.9916 382.87 17.2216 382.37 16.3416 382.03C15.4816 381.67 14.5416 381.49 13.5216 381.49C12.5016 381.49 11.5516 381.67 10.6716 382.03C9.81156 382.37 9.05156 382.87 8.39156 383.53C7.73156 384.19 7.22156 384.97 6.86156 385.87C6.50156 386.75 6.32156 387.73 6.32156 388.81C6.32156 389.89 6.50156 390.88 6.86156 391.78C7.22156 392.68 7.73156 393.46 8.39156 394.12C9.05156 394.76 9.81156 395.26 10.6716 395.62C11.5516 395.98 12.5016 396.16 13.5216 396.16ZM34.2195 400.36C32.8995 400.36 31.7695 400.08 30.8295 399.52C29.9095 398.94 29.2095 398.14 28.7295 397.12C28.2495 396.1 28.0095 394.91 28.0095 393.55V383.62H32.5095V393.19C32.5095 393.81 32.6295 394.36 32.8695 394.84C33.1295 395.3 33.4895 395.66 33.9495 395.92C34.4095 396.18 34.9295 396.31 35.5095 396.31C36.1095 396.31 36.6295 396.18 37.0695 395.92C37.5295 395.66 37.8795 395.3 38.1195 394.84C38.3795 394.36 38.5095 393.81 38.5095 393.19V383.62H43.0095V400H38.8095V396.76L39.0495 397.48C38.6695 398.46 38.0495 399.19 37.1895 399.67C36.3495 400.13 35.3595 400.36 34.2195 400.36Z" fill="white" fill-opacity="0.75"/>
</svg>
